<?xml version="1.0" encoding="UTF-8"?>
<svg id="delete" xmlns="http://www.w3.org/2000/svg" viewBox="0 0 200 200">
  <path d="m134,144h-68c-2.21,0-4-1.79-4-4v-62h76v62c0,2.21-1.79,4-4,4Zm-34-58c-1.66,0-3,1.57-3,3.5v43c0,1.93,1.34,3.5,3,3.5s3-1.57,3-3.5v-43c0-1.93-1.34-3.5-3-3.5Zm12,0c-1.66,0-3,1.57-3,3.5v43c0,1.93,1.34,3.5,3,3.5s3-1.57,3-3.5v-43c0-1.93-1.34-3.5-3-3.5Zm12,0c-1.66,0-3,1.57-3,3.5v43c0,1.93,1.34,3.5,3,3.5s3-1.57,3-3.5v-43c0-1.93-1.34-3.5-3-3.5Zm-48,0c-1.66,0-3,1.57-3,3.5v43c0,1.93,1.34,3.5,3,3.5s3-1.57,3-3.5v-43c0-1.93-1.34-3.5-3-3.5Zm12,0c-1.66,0-3,1.57-3,3.5v43c0,1.93,1.34,3.5,3,3.5s3-1.57,3-3.5v-43c0-1.93-1.34-3.5-3-3.5Zm56-27c0-2.21-1.79-4-4-4H60c-2.21,0-4,1.79-4,4v13h88v-13Z"/>
</svg>