<?xml version="1.0" encoding="UTF-8"?>
<svg id="move" xmlns="http://www.w3.org/2000/svg" viewBox="0 0 200 200">
  <path d="m167.25,101.7l-28.2,17.42c-1.68,1.04-3.05.27-3.05-1.7v-9.42h-28.01v28.01h9.42c1.97,0,2.74,1.37,1.7,3.05l-17.42,28.2c-.94,1.51-2.47,1.51-3.4,0l-17.42-28.2c-1.04-1.68-.27-3.05,1.7-3.05h9.42v-28.01h-28.01v9.42c0,1.97-1.37,2.74-3.05,1.7l-28.2-17.42c-1.51-.94-1.51-2.47,0-3.4l28.2-17.42c1.68-1.04,3.05-.27,3.05,1.7v9.42h28.01v-28.01h-9.42c-1.97,0-2.74-1.37-1.7-3.05l17.42-28.2c.94-1.51,2.47-1.51,3.4,0l17.42,28.2c1.04,1.68.27,3.05-1.7,3.05h-9.42v28.01h28.01v-9.42c0-1.97,1.37-2.74,3.05-1.7l28.2,17.42c1.51.94,1.51,2.47,0,3.4Z"/>
</svg>