<?xml version="1.0" encoding="UTF-8"?>
<svg id="wall" xmlns="http://www.w3.org/2000/svg" viewBox="0 0 200 200">
  <path d="m34,81v-14c0-1.66,1.34-3,3-3h34c1.66,0,3,1.34,3,3v14c0,1.66-1.34,3-3,3h-34c-1.66,0-3-1.34-3-3Zm49,3h34c1.66,0,3-1.34,3-3v-14c0-1.66-1.34-3-3-3h-34c-1.66,0-3,1.34-3,3v14c0,1.66,1.34,3,3,3Zm80-20h-34c-1.66,0-3,1.34-3,3v14c0,1.66,1.34,3,3,3h34c1.66,0,3-1.34,3-3v-14c0-1.66-1.34-3-3-3Zm-112,43v-14c0-1.66-1.34-3-3-3h-14v20h14c1.66,0,3-1.34,3-3Zm9-17c-1.66,0-3,1.34-3,3v14c0,1.66,1.34,3,3,3h34c1.66,0,3-1.34,3-3v-14c0-1.66-1.34-3-3-3h-34Zm43,3v14c0,1.66,1.34,3,3,3h34c1.66,0,3-1.34,3-3v-14c0-1.66-1.34-3-3-3h-34c-1.66,0-3,1.34-3,3Zm46,0v14c0,1.66,1.34,3,3,3h14v-20h-14c-1.66,0-3,1.34-3,3Zm-78,23h-34c-1.66,0-3,1.34-3,3v14c0,1.66,1.34,3,3,3h34c1.66,0,3-1.34,3-3v-14c0-1.66-1.34-3-3-3Zm46,0h-34c-1.66,0-3,1.34-3,3v14c0,1.66,1.34,3,3,3h34c1.66,0,3-1.34,3-3v-14c0-1.66-1.34-3-3-3Zm46,0h-34c-1.66,0-3,1.34-3,3v14c0,1.66,1.34,3,3,3h34c1.66,0,3-1.34,3-3v-14c0-1.66-1.34-3-3-3Z"/>
</svg>